<svg width="61" height="60" viewBox="0 0 61 60" fill="none" xmlns="http://www.w3.org/2000/svg">
<rect width="61" height="60" transform="matrix(-1 0 0 1 61 0)" fill="#0F0F0F"/>
<path d="M14.9393 31.0607C14.3536 30.4749 14.3536 29.5251 14.9393 28.9393L24.4853 19.3934C25.0711 18.8076 26.0208 18.8076 26.6066 19.3934C27.1924 19.9792 27.1924 20.9289 26.6066 21.5147L18.1213 30L26.6066 38.4853C27.1924 39.0711 27.1924 40.0208 26.6066 40.6066C26.0208 41.1924 25.0711 41.1924 24.4853 40.6066L14.9393 31.0607ZM45 31.5L16 31.5L16 28.5L45 28.5L45 31.5Z" fill="#DA8B14"/>
</svg>
